Coordinates
version=1
nRows=10
nColumns=63
inDegrees=yes

Units are S.I. units (second, meters, Newtons, ...)
If the header above contains a line with 'inDegrees', this indicates whether rotational values are in degrees (yes) or radians (no).

endheader
time	pelvis_tilt	pelvis_list	pelvis_rotation	pelvis_tx	pelvis_ty	pelvis_tz	hip_flexion_r	hip_adduction_r	hip_rotation_r	knee_angle_r	knee_angle_r_beta	ankle_angle_r	subtalar_angle_r	mtp_angle_r	hip_flexion_l	hip_adduction_l	hip_rotation_l	knee_angle_l	knee_angle_l_beta	ankle_angle_l	subtalar_angle_l	mtp_angle_l	L5_S1_Flex_Ext	L5_S1_Lat_Bending	L5_S1_axial_rotation	L4_L5_Flex_Ext	L4_L5_Lat_Bending	L4_L5_axial_rotation	L3_L4_Flex_Ext	L3_L4_Lat_Bending	L3_L4_axial_rotation	L2_L3_Flex_Ext	L2_L3_Lat_Bending	L2_L3_axial_rotation	L1_L2_Flex_Ext	L1_L2_Lat_Bending	L1_L2_axial_rotation	L1_T12_Flex_Ext	L1_T12_Lat_Bending	L1_T12_axial_rotation	Abs_r3	Abs_r2	Abs_r1	Abs_t1	Abs_t2	neck_flexion	neck_bending	neck_rotation	arm_flex_r	arm_add_r	arm_rot_r	elbow_flex_r	pro_sup_r	wrist_flex_r	wrist_dev_r	arm_flex_l	arm_add_l	arm_rot_l	elbow_flex_l	pro_sup_l	wrist_flex_l	wrist_dev_l
      0.03333333	      3.54518796	     -0.91511821	   -182.39432288	      2.64255189	      0.89204084	      0.45565080	      3.23089051	     -0.31732743	     -2.35665063	      5.67539225	      0.09905428	     12.72894116	    -17.58693160	      0.00000000	      4.16306287	      0.50853329	     -6.94239801	     11.30490300	      0.19730778	     12.98391067	    -18.02047043	      0.00000000	      0.00496945	     -0.18822194	      0.38839865	      0.00922877	     -0.25033517	      0.41267357	      0.00816431	     -0.45764281	      0.41267357	      0.00567959	     -0.45764281	      0.33984882	      0.00461463	     -0.38382217	      0.31557391	      0.00283955	     -0.29155578	      0.29129899	      0.03549630	     -2.12920417	      2.16015679	      0.00000000	      0.00000000	     -0.00000000	      0.00000000	      0.00000000	     -4.30265247	    -15.37978243	     33.73493975	     22.77726151	     52.10918380	      0.00000000	      5.26071883	    -11.06403934	    -11.09295860	     15.50144974	     21.83134676	     50.96869571	      0.00000000	      5.26071883
      0.06666667	      3.92856651	     -1.17311910	   -182.16947452	      2.64368597	      0.89188499	      0.45217019	      7.29717825	     -0.89602257	     -2.46825876	     13.11047850	      0.22882102	     16.75818821	    -17.06642004	      0.00000000	      4.36322692	      0.65457050	     -8.04013167	     10.27217428	      0.17928326	     12.59923416	    -17.52836998	      0.00000000	      0.00225787	     -0.26187476	      0.21255729	      0.00419310	     -0.34829343	      0.22584212	      0.00370946	     -0.63672228	      0.22584212	      0.00258052	     -0.63672228	      0.18598762	      0.00209666	     -0.53401500	      0.17270279	      0.00129015	     -0.40564400	      0.15941796	      0.01612777	     -2.96237961	      1.18217986	      0.00000000	      0.00000000	     -0.00000000	      0.00000000	      0.00000000	     -3.67569572	    -14.71905339	     34.15562779	     22.64869689	     52.28914030	      0.00000000	      5.19373959	    -12.83451767	     -7.28856681	     -5.86155087	     23.68514995	     44.83148057	      0.00000000	      5.19373959
      0.10000000	      4.27244253	     -1.71151946	   -182.53272973	      2.64458020	      0.89144886	      0.44922013	     10.57447610	     -2.19901533	     -5.56208625	     18.95908224	      0.33089841	     20.93368454	    -11.33622776	      0.00000000	      4.43938659	      1.15989313	     -9.81031103	      9.17626301	      0.16015600	     12.12547127	    -17.10004882	      0.00000000	      0.00055019	     -0.35779159	      0.13812892	      0.00102176	     -0.47586282	      0.14676197	      0.00090391	     -0.86993448	      0.14676197	      0.00062881	     -0.86993448	      0.12086280	      0.00051091	     -0.72960862	      0.11222975	      0.00031438	     -0.55421918	      0.10359669	      0.00392996	     -4.04741006	      0.76823160	      0.00000000	      0.00000000	     -0.00000000	      0.00000000	      0.00000000	     -3.10057001	    -14.14554198	     34.60296420	     22.51673410	     52.48372966	      0.00000000	      5.16685713	    -13.89668865	     -4.54031974	    -19.51324961	     26.36695247	     42.15302886	      0.00000000	      5.16685713
      0.13333333	      4.55729985	     -2.17190235	   -181.89395260	      2.64488961	      0.89111875	      0.44910094	     12.28333038	     -4.29151304	    -12.53968921	     22.46411610	      0.39207279	     24.52581539	     -1.67138137	      0.00000000	      4.71470081	      1.74687890	    -10.39275628	      8.63338623	      0.15068102	     11.78862770	    -16.94494169	      0.00000000	     -0.00149559	     -0.43276235	     -0.12299251	     -0.00277747	     -0.57557393	     -0.13067954	     -0.00245711	     -1.05221838	     -0.13067954	     -0.00170931	     -1.05221838	     -0.10761844	     -0.00138881	     -0.88248899	     -0.09993141	     -0.00085458	     -0.67034888	     -0.09224438	     -0.01068288	     -4.89549429	     -0.68404742	      0.00000000	      0.00000000	     -0.00000000	      0.00000000	      0.00000000	     -2.59188818	    -13.87644396	     35.39167410	     22.48499671	     52.78051070	      0.00000000	      5.13639918	    -14.58706082	     -2.20831378	    -29.56293874	     28.94316858	     41.17917738	      0.00000000	      5.13639918
      0.16666667	      4.82481608	     -2.38462791	   -182.01307398	      2.64536406	      0.89096622	      0.44879425	     13.39775250	     -4.88325968	    -13.29897220	     24.18599515	      0.42212525	     25.06786782	     -0.59896820	      0.00000000	      4.96192859	      2.02116177	    -11.38955951	      8.25851647	      0.14413830	     11.46405812	    -17.01265737	      0.00000000	     -0.00027390	     -0.46389238	     -0.19756294	     -0.00050866	     -0.61697686	     -0.20991063	     -0.00044999	     -1.12790792	     -0.20991063	     -0.00031304	     -1.12790792	     -0.17286758	     -0.00025434	     -0.94596933	     -0.16051989	     -0.00015651	     -0.71856929	     -0.14817221	     -0.00195644	     -5.24764333	     -1.09878583	      0.00000000	      0.00000000	     -0.00000000	      0.00000000	      0.00000000	     -2.32868943	    -13.75352812	     35.42161499	     22.51896074	     52.79358615	      0.00000000	      5.13297581	    -15.19451170	     -1.76565388	    -30.47414278	     30.24038897	     41.13985960	      0.00000000	      5.13297581
      0.20000000	      4.86347820	     -2.68867818	   -182.25099894	      2.64540533	      0.89119297	      0.44933133	     13.55461781	     -5.99411809	    -16.34596310	     24.77919900	      0.43247861	     26.16857458	      4.70263307	      0.00000000	      5.00148618	      2.38974938	    -12.59015130	      8.11229364	      0.14158623	     11.31829353	    -16.74387569	      0.00000000	     -0.00274017	     -0.49052984	     -0.19392688	     -0.00508876	     -0.65240468	     -0.20604731	     -0.00450182	     -1.19267425	     -0.20604731	     -0.00313174	     -1.19267425	     -0.16968602	     -0.00254452	     -1.00028845	     -0.15756559	     -0.00156573	     -0.75983072	     -0.14544516	     -0.01957273	     -5.54897163	     -1.07856311	      0.00000000	      0.00000000	     -0.00000000	      0.00000000	      0.00000000	     -2.31591799	    -13.72265193	     35.16715115	     22.50806318	     52.76066998	      0.00000000	      5.07626543	    -15.12394132	     -0.79753167	    -34.24025374	     30.76162405	     42.66131922	      0.00000000	      5.07626543
      0.23333333	      4.84859563	     -2.89957480	   -182.69075517	      2.64590843	      0.89165201	      0.44938856	     13.67760820	     -6.07529835	    -15.45093761	     24.78210433	      0.43252932	     25.81416563	      4.29064133	      0.00000000	      5.09207329	      2.56785939	    -13.55411004	      8.20202820	      0.14315240	     11.17535643	    -16.76549302	      0.00000000	     -0.00286618	     -0.49724795	     -0.07238755	     -0.00532279	     -0.66133977	     -0.07691178	     -0.00470885	     -1.20900866	     -0.07691178	     -0.00327576	     -1.20900866	     -0.06333911	     -0.00266154	     -1.01398802	     -0.05881489	     -0.00163774	     -0.77023707	     -0.05429067	     -0.02047286	     -5.62496825	     -0.40259786	      0.00000000	      0.00000000	     -0.00000000	      0.00000000	      0.00000000	     -2.59713444	    -13.58731085	     33.71518472	     22.49934472	     52.85258854	      0.00000000	      5.06339379	    -14.87226896	     -0.73999733	    -34.26899521	     30.59280693	     43.21323414	      0.00000000	      5.06339379
      0.26666667	      4.70541862	     -3.15777061	   -182.75001522	      2.64628735	      0.89227392	      0.44970104	     13.43048220	     -6.31811885	    -15.25881317	     24.52275769	      0.42800286	     25.44742446	      4.33510401	      0.00000000	      5.14414509	      2.78648382	    -13.86904842	      8.49059837	      0.14818890	     11.03055810	    -16.91874233	      0.00000000	     -0.00379111	     -0.50585512	      0.03184953	     -0.00704046	     -0.67278731	      0.03384012	     -0.00622841	     -1.22993613	      0.03384012	     -0.00433286	     -1.22993613	      0.02786834	     -0.00352042	     -1.03153976	      0.02587774	     -0.00216624	     -0.78356958	      0.02388715	     -0.02707950	     -5.72233426	      0.17713753	      0.00000000	      0.00000000	     -0.00000000	      0.00000000	      0.00000000	     -2.83348541	    -13.58316792	     33.66644748	     22.37155185	     52.83108006	      0.00000000	      5.06278927	    -14.46416167	     -0.76827985	    -34.23986276	     30.30607399	     43.24728714	      0.00000000	      5.06278927
      0.30000000	      4.54168657	     -3.41355184	   -183.10698758	      2.64662346	      0.89278179	      0.44942789	     13.15123389	     -6.42332526	    -14.47226052	     24.15990145	      0.42166983	     25.13951212	      4.34957844	      0.00000000	      5.25624308	      2.95152386	    -14.55141097	      8.95341974	      0.15626665	     10.86951172	    -17.21617531	      0.00000000	     -0.00253935	     -0.51582889	      0.19343300	     -0.00471584	     -0.68605242	      0.20552257	     -0.00417191	     -1.25418635	      0.20552257	     -0.00290223	     -1.25418635	      0.16925388	     -0.00235804	     -1.05187826	      0.15716431	     -0.00145099	     -0.79901894	      0.14507475	     -0.01813836	     -5.83515952	      1.07581633	      0.00000000	      0.00000000	     -0.00000000	      0.00000000	      0.00000000	     -3.04809676	    -13.49700547	     33.44889131	     22.12108696	     52.75610426	      0.00000000	      5.06171207	    -13.94874927	     -0.88706013	    -34.16734270	     29.64481429	     43.30830153	      0.00000000	      5.06171207
      0.33333333	      4.40936088	     -3.38017363	   -183.53837785	      2.64673030	      0.89294550	      0.44869370	     12.98372692	     -6.08251934	    -13.12769788	     23.98735795	      0.41865838	     24.63081598	      3.30014001	      0.00000000	      5.34127455	      2.78579465	    -15.11537616	      9.40308541	      0.16411480	     10.89075787	    -17.28894285	      0.00000000	     -0.00174484	     -0.50246679	      0.32716803	     -0.00324035	     -0.66828083	      0.34761603	     -0.00286660	     -1.22169775	      0.34761603	     -0.00199418	     -1.22169775	      0.28627203	     -0.00162026	     -1.02463027	      0.26582402	     -0.00099700	     -0.77832105	      0.24537602	     -0.01246323	     -5.68400479	      1.81961044	      0.00000000	      0.00000000	     -0.00000000	      0.00000000	      0.00000000	     -3.21977327	    -13.39738527	     32.89155534	     21.87347496	     52.08195505	      0.00000000	      5.05260939	    -13.70145363	     -1.01823284	    -33.92608785	     29.27361152	     43.56140563	      0.00000000	      5.05260939
